<?xml version="1.0" standalone="no"?>
<!DOCTYPE svg PUBLIC "-//W3C//DTD SVG 20010904//EN"
 "http://www.w3.org/TR/2001/REC-SVG-20010904/DTD/svg10.dtd">
<svg version="1.0" xmlns="http://www.w3.org/2000/svg"
 width="56" height="56" viewBox="0 0 2040.000000 2040.000000"
 preserveAspectRatio="xMidYMid meet">

<g transform="translate(0.000000,2040.000000) scale(0.100000,-0.100000)"
fill="#fff" stroke="none">
<path d="M0 10200 l0 -10200 10200 0 10200 0 0 10200 0 10200 -10200 0 -10200
0 0 -10200z m9620 5536 c562 -65 993 -230 1540 -587 l110 -71 143 95 c488 326
953 498 1537 569 158 19 639 16 820 -5 386 -46 601 -106 873 -244 245 -124
450 -276 652 -484 142 -146 215 -234 317 -384 307 -450 491 -957 565 -1557 21
-176 24 -671 5 -848 -72 -653 -258 -1251 -585 -1880 -38 -74 -74 -139 -78
-144 -4 -5 2 -27 15 -50 121 -218 221 -429 316 -666 456 -1144 467 -2297 31
-3260 -237 -522 -620 -971 -1061 -1245 -414 -256 -839 -359 -1480 -359 -164 0
-327 5 -385 12 -593 72 -1056 245 -1562 583 l-133 88 -120 -80 c-412 -273
-712 -412 -1096 -507 -253 -63 -470 -90 -789 -99 -1554 -40 -2926 606 -3857
1818 -402 523 -711 1132 -913 1799 -140 465 -219 883 -267 1430 -20 222 -16
889 6 1115 62 645 182 1186 380 1716 575 1544 1690 2641 3118 3068 335 100
719 167 1118 195 129 9 651 -3 780 -18z"/>
<path d="M8990 14743 c-1208 -50 -2222 -605 -2914 -1593 -463 -660 -746 -1477
-838 -2420 -21 -212 -17 -941 5 -1145 75 -679 226 -1232 483 -1764 213 -442
472 -811 804 -1141 503 -501 1147 -846 1833 -979 515 -100 1060 -101 1452 -1
331 84 588 225 1140 629 352 258 596 470 980 855 509 509 950 1026 1472 1721
400 534 909 1264 899 1290 -2 7 -69 110 -147 227 -950 1423 -1894 2550 -2739
3268 -178 152 -280 231 -496 386 -613 439 -884 571 -1322 639 -104 16 -406 36
-497 33 -27 -1 -79 -3 -115 -5z"/>
<path d="M13144 14739 c-212 -13 -449 -63 -644 -136 -81 -30 -317 -143 -358
-171 -9 -6 40 -56 170 -174 283 -257 667 -650 954 -978 183 -208 534 -632 639
-771 11 -15 77 -100 147 -191 181 -236 443 -594 646 -885 130 -187 179 -249
185 -238 16 29 79 191 117 302 266 771 263 1522 -10 2143 -185 422 -502 781
-842 955 -181 92 -325 124 -653 145 -165 11 -176 11 -351 -1z"/>
<path d="M14810 9113 c-142 -205 -477 -670 -590 -818 -25 -33 -84 -109 -130
-170 -284 -372 -600 -758 -859 -1049 -321 -363 -625 -674 -914 -939 -182 -167
-197 -183 -180 -195 10 -8 81 -45 158 -83 286 -139 556 -209 881 -228 273 -17
660 19 814 74 537 194 990 775 1144 1466 48 216 60 336 60 589 0 324 -36 576
-124 890 -58 203 -182 540 -200 540 -3 0 -30 -35 -60 -77z"/>
</g>
</svg>
